<svg xmlns="http://www.w3.org/2000/svg" xmlns:xlink="http://www.w3.org/1999/xlink" viewBox="0,0,256,256" width="35px" height="35px"><g fill="#fffb00" fill-rule="nonzero" stroke="none" stroke-width="1" stroke-linecap="butt" stroke-linejoin="miter" stroke-miterlimit="10" stroke-dasharray="" stroke-dashoffset="0" font-family="none" font-weight="none" font-size="none" text-anchor="none" style="mix-blend-mode: normal"><g transform="scale(3.2,3.2)"><path d="M39.76563,13.75391c-10.46484,0 -20.25,0.78125 -25.60937,1.91797h-0.01562c-3.76953,0.85938 -7.15234,3.50781 -7.86328,7.58984l-0.00391,0.00391v0.00391c-0.63672,3.83984 -1.27344,9.57031 -1.27344,16.73047c0,7.15234 0.63281,12.73047 1.4375,16.75c0.71875,3.93359 4.0625,6.71094 7.85938,7.57422l0.01563,0.00391h0.01172c5.64844,1.13281 15.13281,1.91406 25.59766,1.91406c10.46484,0 19.94922,-0.78125 25.59766,-1.91406h0.01172l0.01563,-0.00391c3.76953,-0.85547 7.15234,-3.50391 7.85938,-7.58594l0.00391,-0.00781v-0.00781c0.63281,-3.96094 1.42969,-9.69531 1.58984,-16.85937v-0.01953c0,-7.16797 -0.79297,-12.90625 -1.59375,-16.90625c-0.71484,-3.93359 -4.0625,-6.71484 -7.85937,-7.57812l-0.04297,-0.01172l-0.03906,-0.00391c-5.58984,-0.79687 -15.23828,-1.58984 -25.69922,-1.58984zM39.76563,15.75391c10.33594,0 19.90234,0.78516 25.36328,1.5625c3.13281,0.72266 5.76563,2.98438 6.30859,5.98047l0.00391,0.00781v0.00781c0.78125,3.88672 1.55859,9.49609 1.55859,16.51563c-0.15625,7.02734 -0.93359,12.64453 -1.5625,16.56641c-0.55078,3.17188 -3.16016,5.25391 -6.32422,5.97656c-5.39844,1.07813 -14.83594,1.87109 -25.19141,1.87109c-10.35547,0 -19.79297,-0.79297 -25.19141,-1.87109c-3.13672,-0.71875 -5.78125,-2.98047 -6.32422,-5.98437l-0.00781,-0.01562c-0.77344,-3.87109 -1.39844,-9.33203 -1.39844,-16.37109c0,-7.03906 0.625,-12.66406 1.25,-16.39453c0.55078,-3.17578 3.16016,-5.25781 6.33203,-5.98047c5.05859,-1.07031 14.82422,-1.87109 25.18359,-1.87109zM15,23c-0.55078,0 -1,0.44922 -1,1c0,0.55078 0.44922,1 1,1c0.55078,0 1,-0.44922 1,-1c0,-0.55078 -0.44922,-1 -1,-1zM31,25.26953v29.46094l25.61328,-14.73047zM14,27c-0.55078,0 -1,0.44922 -1,1c0,0.55078 0.44922,1 1,1c0.55078,0 1,-0.44922 1,-1c0,-0.55078 -0.44922,-1 -1,-1zM33,28.73047l19.60547,11.26953l-19.60547,11.26953zM14,31c-0.55078,0 -1,0.44922 -1,1c0,0.55078 0.44922,1 1,1c0.55078,0 1,-0.44922 1,-1c0,-0.55078 -0.44922,-1 -1,-1zM36,33c-0.55078,0 -1,0.44922 -1,1c0,0.55078 0.44922,1 1,1c0.55078,0 1,-0.44922 1,-1c0,-0.55078 -0.44922,-1 -1,-1zM14,35c-0.55078,0 -1,0.44922 -1,1c0,0.55078 0.44922,1 1,1c0.55078,0 1,-0.44922 1,-1c0,-0.55078 -0.44922,-1 -1,-1zM36,37c-0.55078,0 -1,0.44922 -1,1c0,0.55078 0.44922,1 1,1c0.55078,0 1,-0.44922 1,-1c0,-0.55078 -0.44922,-1 -1,-1zM14,39c-0.55078,0 -1,0.44922 -1,1c0,0.55078 0.44922,1 1,1c0.55078,0 1,-0.44922 1,-1c0,-0.55078 -0.44922,-1 -1,-1zM36,41c-0.55078,0 -1,0.44922 -1,1c0,0.55078 0.44922,1 1,1c0.55078,0 1,-0.44922 1,-1c0,-0.55078 -0.44922,-1 -1,-1zM14,43c-0.55078,0 -1,0.44922 -1,1c0,0.55078 0.44922,1 1,1c0.55078,0 1,-0.44922 1,-1c0,-0.55078 -0.44922,-1 -1,-1zM36,45c-0.55078,0 -1,0.44922 -1,1c0,0.55078 0.44922,1 1,1c0.55078,0 1,-0.44922 1,-1c0,-0.55078 -0.44922,-1 -1,-1zM14,47c-0.55078,0 -1,0.44922 -1,1c0,0.55078 0.44922,1 1,1c0.55078,0 1,-0.44922 1,-1c0,-0.55078 -0.44922,-1 -1,-1zM14,51c-0.55078,0 -1,0.44922 -1,1c0,0.55078 0.44922,1 1,1c0.55078,0 1,-0.44922 1,-1c0,-0.55078 -0.44922,-1 -1,-1zM15,55c-0.55078,0 -1,0.44922 -1,1c0,0.55078 0.44922,1 1,1c0.55078,0 1,-0.44922 1,-1c0,-0.55078 -0.44922,-1 -1,-1z"></path></g></g></svg>