<svg xmlns="http://www.w3.org/2000/svg" width="511.993" height="490.645" viewBox="0 0 511.993 490.645">
  <path id="star" d="M510.652,185.883a27.177,27.177,0,0,0-23.4-18.687l-147.8-13.418-58.41-136.75a27.222,27.222,0,0,0-50.07,0l-58.41,136.75L24.742,167.2A27.246,27.246,0,0,0,9.277,214.809L121,312.774,88.059,457.86a27.209,27.209,0,0,0,40.492,29.422L256,411.078l127.422,76.2a27.232,27.232,0,0,0,40.516-29.422L390.992,312.774l111.723-97.965a27.246,27.246,0,0,0,7.938-28.926Zm-252.2,223.723" transform="translate(0 -0.496)" fill="#50a186"/>
</svg>
